<svg width="220" height="40" viewBox="0 0 220 40" fill="none" xmlns="http://www.w3.org/2000/svg">
<path d="M62.3678 13.12C61.7758 13.12 61.2798 12.936 60.8798 12.568C60.4958 12.184 60.3038 11.712 60.3038 11.152C60.3038 10.592 60.4958 10.128 60.8798 9.76C61.2798 9.376 61.7758 9.184 62.3678 9.184C62.9598 9.184 63.4478 9.376 63.8318 9.76C64.2318 10.128 64.4318 10.592 64.4318 11.152C64.4318 11.712 64.2318 12.184 63.8318 12.568C63.4478 12.936 62.9598 13.12 62.3678 13.12ZM64.0238 14.704V28H60.6638V14.704H64.0238ZM72.5515 14.488C73.5435 14.488 74.4155 14.688 75.1675 15.088C75.9195 15.472 76.5115 15.976 76.9435 16.6V14.704H80.3275V28.096C80.3275 29.328 80.0795 30.424 79.5835 31.384C79.0875 32.36 78.3435 33.128 77.3515 33.688C76.3595 34.264 75.1595 34.552 73.7515 34.552C71.8635 34.552 70.3115 34.112 69.0955 33.232C67.8955 32.352 67.2155 31.152 67.0555 29.632H70.3915C70.5675 30.24 70.9435 30.72 71.5195 31.072C72.1115 31.44 72.8235 31.624 73.6555 31.624C74.6315 31.624 75.4235 31.328 76.0315 30.736C76.6395 30.16 76.9435 29.28 76.9435 28.096V26.032C76.5115 26.656 75.9115 27.176 75.1435 27.592C74.3915 28.008 73.5275 28.216 72.5515 28.216C71.4315 28.216 70.4075 27.928 69.4795 27.352C68.5515 26.776 67.8155 25.968 67.2715 24.928C66.7435 23.872 66.4795 22.664 66.4795 21.304C66.4795 19.96 66.7435 18.768 67.2715 17.728C67.8155 16.688 68.5435 15.888 69.4555 15.328C70.3835 14.768 71.4155 14.488 72.5515 14.488ZM76.9435 21.352C76.9435 20.536 76.7835 19.84 76.4635 19.264C76.1435 18.672 75.7115 18.224 75.1675 17.92C74.6235 17.6 74.0395 17.44 73.4155 17.44C72.7915 17.44 72.2155 17.592 71.6875 17.896C71.1595 18.2 70.7275 18.648 70.3915 19.24C70.0715 19.816 69.9115 20.504 69.9115 21.304C69.9115 22.104 70.0715 22.808 70.3915 23.416C70.7275 24.008 71.1595 24.464 71.6875 24.784C72.2315 25.104 72.8075 25.264 73.4155 25.264C74.0395 25.264 74.6235 25.112 75.1675 24.808C75.7115 24.488 76.1435 24.04 76.4635 23.464C76.7835 22.872 76.9435 22.168 76.9435 21.352ZM90.9771 14.512C92.5611 14.512 93.8411 15.016 94.8171 16.024C95.7931 17.016 96.2811 18.408 96.2811 20.2V28H92.9211V20.656C92.9211 19.6 92.6571 18.792 92.1291 18.232C91.6011 17.656 90.8811 17.368 89.9691 17.368C89.0411 17.368 88.3051 17.656 87.7611 18.232C87.2331 18.792 86.9691 19.6 86.9691 20.656V28H83.6091V14.704H86.9691V16.36C87.4171 15.784 87.9851 15.336 88.6731 15.016C89.3771 14.68 90.1451 14.512 90.9771 14.512ZM101.18 13.12C100.588 13.12 100.092 12.936 99.6923 12.568C99.3083 12.184 99.1163 11.712 99.1163 11.152C99.1163 10.592 99.3083 10.128 99.6923 9.76C100.092 9.376 100.588 9.184 101.18 9.184C101.772 9.184 102.26 9.376 102.644 9.76C103.044 10.128 103.244 10.592 103.244 11.152C103.244 11.712 103.044 12.184 102.644 12.568C102.26 12.936 101.772 13.12 101.18 13.12ZM102.836 14.704V28H99.4763V14.704H102.836ZM110.068 17.464V23.896C110.068 24.344 110.172 24.672 110.38 24.88C110.604 25.072 110.972 25.168 111.484 25.168H113.044V28H110.932C108.1 28 106.684 26.624 106.684 23.872V17.464H105.1V14.704H106.684V11.416H110.068V14.704H113.044V17.464H110.068ZM127.821 21.064C127.821 21.544 127.789 21.976 127.725 22.36H118.005C118.085 23.32 118.421 24.072 119.013 24.616C119.605 25.16 120.333 25.432 121.197 25.432C122.445 25.432 123.333 24.896 123.861 23.824H127.485C127.101 25.104 126.365 26.16 125.277 26.992C124.189 27.808 122.853 28.216 121.269 28.216C119.989 28.216 118.837 27.936 117.813 27.376C116.805 26.8 116.013 25.992 115.437 24.952C114.877 23.912 114.597 22.712 114.597 21.352C114.597 19.976 114.877 18.768 115.437 17.728C115.997 16.688 116.781 15.888 117.789 15.328C118.797 14.768 119.957 14.488 121.269 14.488C122.533 14.488 123.661 14.76 124.653 15.304C125.661 15.848 126.437 16.624 126.981 17.632C127.541 18.624 127.821 19.768 127.821 21.064ZM124.341 20.104C124.325 19.24 124.013 18.552 123.405 18.04C122.797 17.512 122.053 17.248 121.173 17.248C120.341 17.248 119.637 17.504 119.061 18.016C118.501 18.512 118.157 19.208 118.029 20.104H124.341ZM152.504 14.512C154.136 14.512 155.448 15.016 156.44 16.024C157.448 17.016 157.952 18.408 157.952 20.2V28H154.592V20.656C154.592 19.616 154.328 18.824 153.8 18.28C153.272 17.72 152.552 17.44 151.64 17.44C150.728 17.44 150 17.72 149.456 18.28C148.928 18.824 148.664 19.616 148.664 20.656V28H145.304V20.656C145.304 19.616 145.04 18.824 144.512 18.28C143.984 17.72 143.264 17.44 142.352 17.44C141.424 17.44 140.688 17.72 140.144 18.28C139.616 18.824 139.352 19.616 139.352 20.656V28H135.992V14.704H139.352V16.312C139.784 15.752 140.336 15.312 141.008 14.992C141.696 14.672 142.448 14.512 143.264 14.512C144.304 14.512 145.232 14.736 146.048 15.184C146.864 15.616 147.496 16.24 147.944 17.056C148.376 16.288 149 15.672 149.816 15.208C150.648 14.744 151.544 14.512 152.504 14.512ZM167.044 28.216C165.764 28.216 164.612 27.936 163.588 27.376C162.564 26.8 161.756 25.992 161.164 24.952C160.588 23.912 160.3 22.712 160.3 21.352C160.3 19.992 160.596 18.792 161.188 17.752C161.796 16.712 162.62 15.912 163.66 15.352C164.7 14.776 165.86 14.488 167.14 14.488C168.42 14.488 169.58 14.776 170.62 15.352C171.66 15.912 172.476 16.712 173.068 17.752C173.676 18.792 173.98 19.992 173.98 21.352C173.98 22.712 173.668 23.912 173.044 24.952C172.436 25.992 171.604 26.8 170.548 27.376C169.508 27.936 168.34 28.216 167.044 28.216ZM167.044 25.288C167.652 25.288 168.22 25.144 168.748 24.856C169.292 24.552 169.724 24.104 170.044 23.512C170.364 22.92 170.524 22.2 170.524 21.352C170.524 20.088 170.188 19.12 169.516 18.448C168.86 17.76 168.052 17.416 167.092 17.416C166.132 17.416 165.324 17.76 164.668 18.448C164.028 19.12 163.708 20.088 163.708 21.352C163.708 22.616 164.02 23.592 164.644 24.28C165.284 24.952 166.084 25.288 167.044 25.288ZM183.813 14.512C185.397 14.512 186.677 15.016 187.653 16.024C188.629 17.016 189.117 18.408 189.117 20.2V28H185.757V20.656C185.757 19.6 185.493 18.792 184.965 18.232C184.437 17.656 183.717 17.368 182.805 17.368C181.877 17.368 181.141 17.656 180.597 18.232C180.069 18.792 179.805 19.6 179.805 20.656V28H176.445V14.704H179.805V16.36C180.253 15.784 180.821 15.336 181.509 15.016C182.213 14.68 182.981 14.512 183.813 14.512ZM204.672 21.064C204.672 21.544 204.64 21.976 204.576 22.36H194.856C194.936 23.32 195.272 24.072 195.864 24.616C196.456 25.16 197.184 25.432 198.048 25.432C199.296 25.432 200.184 24.896 200.712 23.824H204.336C203.952 25.104 203.216 26.16 202.128 26.992C201.04 27.808 199.704 28.216 198.12 28.216C196.84 28.216 195.688 27.936 194.664 27.376C193.656 26.8 192.864 25.992 192.288 24.952C191.728 23.912 191.448 22.712 191.448 21.352C191.448 19.976 191.728 18.768 192.288 17.728C192.848 16.688 193.632 15.888 194.64 15.328C195.648 14.768 196.808 14.488 198.12 14.488C199.384 14.488 200.512 14.76 201.504 15.304C202.512 15.848 203.288 16.624 203.832 17.632C204.392 18.624 204.672 19.768 204.672 21.064ZM201.192 20.104C201.176 19.24 200.864 18.552 200.256 18.04C199.648 17.512 198.904 17.248 198.024 17.248C197.192 17.248 196.488 17.504 195.912 18.016C195.352 18.512 195.008 19.208 194.88 20.104H201.192ZM219.845 14.704L211.613 34.288H208.037L210.917 27.664L205.589 14.704H209.357L212.789 23.992L216.269 14.704H219.845Z" fill="white"/>
<path d="M34.1422 5.85781C30.3647 2.08031 25.3422 0 20 0C14.6578 0 9.63531 2.08031 5.85781 5.85781C2.08031 9.63531 0 14.6578 0 20C0 25.3422 2.08039 30.3646 5.85781 34.1422C9.63523 37.9198 14.6578 40 20 40C25.3422 40 30.3647 37.9197 34.1422 34.1422C37.9197 30.3647 40 25.3422 40 20C40 14.6578 37.9196 9.63539 34.1422 5.85781Z" fill="#33CC95"/>
<g clip-path="url(#clip0_35212_417)">
<path d="M20.5714 8V33.1429" stroke="white" stroke-width="2" stroke-linecap="round" stroke-linejoin="round"/>
<path d="M26.2857 12.5714H17.7143C16.6534 12.5714 15.636 12.9929 14.8859 13.743C14.1357 14.4931 13.7143 15.5106 13.7143 16.5714C13.7143 17.6323 14.1357 18.6497 14.8859 19.3999C15.636 20.15 16.6534 20.5714 17.7143 20.5714H23.4286C24.4894 20.5714 25.5069 20.9929 26.257 21.743C27.0072 22.4932 27.4286 23.5106 27.4286 24.5714C27.4286 25.6323 27.0072 26.6497 26.257 27.3999C25.5069 28.15 24.4894 28.5714 23.4286 28.5714H13.7143" stroke="white" stroke-width="2" stroke-linecap="round" stroke-linejoin="round"/>
</g>
<defs>
<clipPath id="clip0_35212_417">
<rect width="27.4286" height="27.4286" fill="white" transform="translate(6.85715 6.85714)"/>
</clipPath>
</defs>
</svg>
